<?xml version="1.0" standalone="no"?><!DOCTYPE svg PUBLIC "-//W3C//DTD SVG 1.1//EN" "http://www.w3.org/Graphics/SVG/1.1/DTD/svg11.dtd"><svg t="1567996384821" class="icon" viewBox="0 0 1024 1024" version="1.1" xmlns="http://www.w3.org/2000/svg" p-id="2011" width="16" height="16" xmlns:xlink="http://www.w3.org/1999/xlink"><defs><style type="text/css"></style></defs><path d="M927.744 475.648l-178.176-178.176a51.2 51.2 0 0 0-72.192 72.192L819.2 512l-142.336 142.336a51.2 51.2 0 1 0 72.192 72.192l178.176-178.176a51.2 51.2 0 0 0 0.512-72.704zM335.872 297.472a51.2 51.2 0 0 0-72.192 0L84.992 475.648a51.2 51.2 0 0 0 0 72.192l178.176 178.176a51.2 51.2 0 0 0 72.192-72.192L194.048 512l141.824-142.336a51.2 51.2 0 0 0 0-72.192zM578.048 286.208a51.2 51.2 0 0 0-66.048 30.208l-131.584 355.328a51.2 51.2 0 1 0 95.744 35.84l131.584-355.328a51.2 51.2 0 0 0-29.696-66.048z" p-id="2012" fill="#2c2c2c"></path></svg>