<svg xmlns="http://www.w3.org/2000/svg" viewBox="0 0 1024 1024" width="1024" height="1024">
	<style>
		tspan { white-space:pre }
		.shp0 { fill: #ffffff } 
		.shp1 { fill: #2c2c2c } 
	</style>
	<path id="形状 1" class="shp0" d="M-57,1035h1121v-1056h-1121z" />
	<path id="Layer" class="shp1" d="M927.74,475.65l-178.18,-178.18c-9.79,-8.39 -22.39,-12.77 -35.28,-12.27c-12.89,0.5 -25.11,5.84 -34.23,14.96c-9.12,9.12 -14.46,21.34 -14.96,34.23c-0.5,12.89 3.89,25.48 12.27,35.28l141.82,142.34l-142.34,142.34c-10.84,9.28 -17.31,22.66 -17.86,36.91c-0.55,14.25 4.87,28.09 14.96,38.18c10.09,10.09 23.93,15.51 38.18,14.96c14.25,-0.55 27.63,-7.02 36.91,-17.86l178.18,-178.18c4.83,-4.73 8.68,-10.36 11.32,-16.58c2.64,-6.22 4.03,-12.9 4.08,-19.66c0.05,-6.76 -1.24,-13.46 -3.8,-19.72c-2.56,-6.26 -6.32,-11.95 -11.09,-16.74zM335.87,297.47c-4.75,-4.72 -10.38,-8.47 -16.57,-11.02c-6.19,-2.55 -12.82,-3.87 -19.52,-3.87c-6.7,0 -13.33,1.31 -19.52,3.87c-6.19,2.55 -11.82,6.3 -16.57,11.02l-178.69,178.18c-4.72,4.75 -8.47,10.38 -11.02,16.57c-2.55,6.19 -3.87,12.82 -3.87,19.52c0,6.7 1.31,13.33 3.87,19.52c2.55,6.19 6.3,11.82 11.02,16.57l178.18,178.18c9.79,8.39 22.39,12.77 35.28,12.27c12.89,-0.5 25.11,-5.84 34.23,-14.96c9.12,-9.12 14.46,-21.34 14.96,-34.23c0.5,-12.89 -3.89,-25.48 -12.27,-35.28l-141.31,-141.82l141.82,-142.34c4.72,-4.75 8.47,-10.38 11.02,-16.57c2.55,-6.19 3.87,-12.82 3.87,-19.52c0,-6.7 -1.31,-13.33 -3.87,-19.52c-2.55,-6.19 -6.3,-11.82 -11.02,-16.57zM578.05,286.21c-6.32,-2.37 -13.04,-3.48 -19.79,-3.24c-6.75,0.23 -13.38,1.8 -19.52,4.61c-6.14,2.81 -11.66,6.8 -16.25,11.75c-4.59,4.95 -8.15,10.76 -10.49,17.09l-131.58,355.33c-5.69,12.89 -5.81,27.55 -0.34,40.54c5.47,12.98 16.04,23.14 29.24,28.08c13.19,4.94 27.84,4.22 40.49,-1.98c12.65,-6.2 22.18,-17.34 26.36,-30.8l131.58,-355.33c2.39,-6.29 3.51,-12.98 3.31,-19.7c-0.2,-6.72 -1.72,-13.34 -4.48,-19.47c-2.76,-6.13 -6.7,-11.66 -11.59,-16.27c-4.9,-4.61 -10.65,-8.21 -16.94,-10.6z" />
</svg>